<svg width="19" height="18" viewBox="0 0 19 18" fill="none" xmlns="http://www.w3.org/2000/svg">
<mask id="mask0_3_5338" style="mask-type:alpha" maskUnits="userSpaceOnUse" x="6" y="0" width="13" height="12">
<g clip-path="url(#clip0_3_5338)">
<path d="M18.5 0H6.5V4C8.62173 4 10.6566 4.84285 12.1569 6.34315C13.6571 7.84344 14.5 9.87827 14.5 12H18.5V0Z" fill="black"/>
</g>
</mask>
<g mask="url(#mask0_3_5338)">
</g>
<g clip-path="url(#clip1_3_5338)">
<g clip-path="url(#clip2_3_5338)">
<path d="M6.5 0H18.5V12H6.5V0Z" fill="#EF5350"/>
<path d="M8.5 4.66675H16.5V7.33341H8.5V4.66675Z" fill="#F8F9FD"/>
<path d="M11.1666 2H13.8333V10H11.1666V2Z" fill="#F8F9FD"/>
</g>
</g>
<g clip-path="url(#clip3_3_5338)">
<g clip-path="url(#clip4_3_5338)">
<path d="M0.5 6H12.5V18H0.5V6Z" fill="#0D47A1"/>
<path d="M6.5 8.66667V6H0.5V12H3.16667V10L5.16667 12H6.5V10.6667L4.5 8.66667H6.5Z" fill="#F8F9FD"/>
<path d="M2.5 6.66667V6H1.16667V6.66667H0.5V8H1.16667V12H2.5V8H6.5V6.66667H2.5Z" fill="#EF5350"/>
<path d="M6.49996 11.3334L3.83329 8.66675H3.16663L6.49996 12.0001V11.3334Z" fill="#EF5350"/>
<path d="M5.16667 14.6666L4.5 14.9999V15.3333H4.16667L3.83333 15.9999L3.5 15.3333H3.16667V14.9999L2.5 14.6666L3.16667 14.3333V13.9999H3.5L3.83333 13.3333L4.16667 13.9999H4.5V14.3333L5.16667 14.6666Z" fill="#F8F9FD"/>
<path d="M9.20671 14.4133L9.37338 14.76L9.74671 14.6733L9.58005 15.0133L9.88005 15.2533L9.50671 15.3333V15.72L9.20671 15.48L8.91338 15.72V15.3333L8.54005 15.2533L8.84005 15.0133L8.67338 14.6733L9.04671 14.76L9.20671 14.4133ZM7.68005 10.76L7.84005 11.1067L8.21338 11.02L8.04671 11.36L8.34671 11.6L7.97338 11.6867V12.0667L7.68005 11.8267L7.38005 12.0667V11.6867L7.00671 11.6L7.30671 11.36L7.14005 11.02L7.51338 11.1067L7.68005 10.76ZM9.20671 8.67334L9.37338 9.02001L9.74671 8.93334L9.58005 9.27334L9.88005 9.51334L9.50671 9.59334V9.98001L9.20671 9.74001L8.91338 9.98001V9.59334L8.54005 9.51334L8.84005 9.27334L8.67338 8.93334L9.04671 9.02001L9.20671 8.67334ZM10.5467 10.24L10.7134 10.5867L11.0867 10.5L10.92 10.84L11.2134 11.08L10.8467 11.16V11.5467L10.5467 11.3067L10.2467 11.5467V11.16L9.88005 11.08L10.18 10.84L10.0134 10.5L10.38 10.5867L10.5467 10.24ZM9.59338 12.0667L9.72671 12.4667H10.14L9.80671 12.7133L9.93338 13.1133L9.59338 12.86L9.25338 13.1067L9.38671 12.7067L9.04005 12.4667H9.46005L9.59338 12.0667Z" fill="#F8F9FD"/>
</g>
</g>
<defs>
<clipPath id="clip0_3_5338">
<rect width="12" height="12" fill="white" transform="translate(6.5)"/>
</clipPath>
<clipPath id="clip1_3_5338">
<rect x="6.5" width="12" height="12" rx="6" fill="white"/>
</clipPath>
<clipPath id="clip2_3_5338">
<rect width="12" height="12" fill="white" transform="translate(6.5)"/>
</clipPath>
<clipPath id="clip3_3_5338">
<rect x="0.5" y="6" width="12" height="12" rx="6" fill="white"/>
</clipPath>
<clipPath id="clip4_3_5338">
<rect width="12" height="12" fill="white" transform="translate(0.5 6)"/>
</clipPath>
</defs>
</svg>
