<svg width="24" height="18" viewBox="0 0 24 18" fill="none" xmlns="http://www.w3.org/2000/svg">
<path d="M5.29581 13.9361C10.5103 15.9711 14.9478 16.3675 19.9764 13.2C19.9395 13.2553 18.9448 14.7289 16.329 15.4842C16.8816 16.2395 17.6369 17.1052 17.6369 17.1052C19.3133 17.1052 20.9527 16.6263 22.3711 15.7052C23.4764 14.9684 24.1027 13.6973 23.9737 12.371C23.7527 10.1052 23.2184 7.8947 22.3895 5.77632C21.3395 3.01318 18.8159 1.09737 15.8869 0.821036C15.629 0.802607 15.4448 0.802607 15.3343 0.802607L15.0396 1.09732C18.4106 2.05522 20.087 3.54732 20.1238 3.60261C14.9474 0.986794 8.83169 0.949989 3.61849 3.49208C3.61849 3.49208 5.2764 1.85261 8.94216 0.986794L8.72111 0.765747C8.33425 0.765747 7.96582 0.802606 7.57902 0.857841C4.87111 1.31836 2.60535 3.17889 1.62902 5.73941C0.781636 7.94993 0.229018 10.271 0.0264013 12.6289C-0.0841221 13.8815 0.505354 15.1157 1.53692 15.8342C2.90006 16.7368 4.52111 17.2157 6.16059 17.2157C6.16059 17.2157 6.82373 16.3499 7.48692 15.5763C5.00006 14.8394 3.98692 13.3657 3.96849 13.3105L4.43651 13.5494C4.71629 13.6924 5.00313 13.8219 5.29581 13.9361ZM8.18692 12.3342C6.98954 12.2973 6.05006 11.2842 6.08692 10.0684C6.12378 8.92627 7.04483 8.00522 8.18692 7.96836C9.38431 8.00522 10.3238 9.01836 10.2869 10.2342C10.2316 11.3763 9.32902 12.2974 8.18692 12.3342ZM15.7027 12.3342C14.5053 12.2973 13.5658 11.2842 13.6027 10.0684C13.6395 8.92627 14.5606 8.00522 15.7027 7.96836C16.9001 8.00522 17.8395 9.01836 17.8027 10.2342C17.7659 11.3763 16.8448 12.2974 15.7027 12.3342Z" fill="white"/>
</svg>
